REM DIRINDEX 1\2\4\18,1\2\4\19,1\2\5\20,1\2\5\21,1\2\6\22,1\2\6\23,1\2\7\24,1\2\7\25,1\2\8\26,1\2\8\27,1\2\9\28,1\2\9\29,1\2\10\30,1\3\11\31,1\3\11\32,1\3\11\33,1\3\11\34,1\3\11\35,1\3\12\36,1\3\12\37,1\3\12\38,1\3\12\39,1\3\12\40,1\3\13\41,1\3\13\42,1\3\13\43,1\3\13\44,1\3\13\45,1\3\14\46,1\3\14\47,1\3\14\48,1\3\14\49,1\3\15\50,1\3\15\51,1\3\15\52,1\3\15\53,1\3\15\54,1\3\16\55,1\3\16\56,1\3\16\57,1\3\16\58,1\3\16\59,1\3\17\60,1\3\17\61
REM DIRNAME "folder01","folder02","folder03","folder04","folder05","folder06","folder07","folder08","folder09","folder10","folder11","folder12","folder13","folder14","folder15","folder16","folder17","folder18","folder19","folder20","folder21","folder22","folder23","folder24","folder25","folder26","folder27","folder28","folder29","folder30","folder31","folder32","folder33","folder34","folder35","folder36","folder37","folder38","folder39","folder40","folder41","folder42","folder43","folder44","folder45","folder46","folder47","folder48","folder49","folder50","folder51","folder52","folder53","folder54","folder55","folder56","folder57","folder58","folder59","folder60","folder61"
TITLE ""
FILE "TOEIC LR Kinnojyukugo_02.mp3" MP3
  TRACK 01 AUDIO
    TITLE "0:"
    INDEX 01 00:00:00
  TRACK 02 AUDIO
    TITLE "20:cjc160_0201"
    INDEX 01 00:00:12
  TRACK 03 AUDIO
    TITLE "0:"
    INDEX 01 00:01:59
  TRACK 04 AUDIO
    TITLE "21:cjc160_0202"
    INDEX 01 00:02:39
  TRACK 05 AUDIO
    TITLE "21:cjc160_0203"
    INDEX 01 00:05:02
  TRACK 06 AUDIO
    TITLE "0:"
    INDEX 01 00:06:34
  TRACK 07 AUDIO
    TITLE "20:cjc160_0204"
    INDEX 01 00:07:46
  TRACK 08 AUDIO
    TITLE "0:"
    INDEX 01 00:09:19
  TRACK 09 AUDIO
    TITLE "21:cjc160_0205"
    INDEX 01 00:09:70
  TRACK 10 AUDIO
    TITLE "21:cjc160_0206"
    INDEX 01 00:13:40
  TRACK 11 AUDIO
    TITLE "0:"
    INDEX 01 00:15:12
  TRACK 12 AUDIO
    TITLE "20:cjc160_0207"
    INDEX 01 00:16:25
  TRACK 13 AUDIO
    TITLE "0:"
    INDEX 01 00:17:32
  TRACK 14 AUDIO
    TITLE "21:cjc160_0208"
    INDEX 01 00:18:08
  TRACK 15 AUDIO
    TITLE "21:cjc160_0209"
    INDEX 01 00:21:09
  TRACK 16 AUDIO
    TITLE "0:"
    INDEX 01 00:23:05
  TRACK 17 AUDIO
    TITLE "20:cjc160_0210"
    INDEX 01 00:24:23
  TRACK 18 AUDIO
    TITLE "0:"
    INDEX 01 00:25:40
  TRACK 19 AUDIO
    TITLE "21:cjc160_0211"
    INDEX 01 00:26:18
  TRACK 20 AUDIO
    TITLE "21:cjc160_0212"
    INDEX 01 00:28:40
  TRACK 21 AUDIO
    TITLE "0:"
    INDEX 01 00:30:09
  TRACK 22 AUDIO
    TITLE "20:cjc160_0213"
    INDEX 01 00:31:21
  TRACK 23 AUDIO
    TITLE "0:"
    INDEX 01 00:32:55
  TRACK 24 AUDIO
    TITLE "21:cjc160_0214"
    INDEX 01 00:33:31
  TRACK 25 AUDIO
    TITLE "21:cjc160_0215"
    INDEX 01 00:37:09
  TRACK 26 AUDIO
    TITLE "0:"
    INDEX 01 00:39:53
  TRACK 27 AUDIO
    TITLE "20:cjc160_0216"
    INDEX 01 00:40:65
  TRACK 28 AUDIO
    TITLE "0:"
    INDEX 01 00:42:54
  TRACK 29 AUDIO
    TITLE "21:cjc160_0217"
    INDEX 01 00:43:28
  TRACK 30 AUDIO
    TITLE "21:cjc160_0218"
    INDEX 01 00:46:28
  TRACK 31 AUDIO
    TITLE "0:"
    INDEX 01 00:48:03
  TRACK 32 AUDIO
    TITLE "20:cjc160_0219"
    INDEX 01 00:49:17
  TRACK 33 AUDIO
    TITLE "0:"
    INDEX 01 00:50:34
  TRACK 34 AUDIO
    TITLE "21:cjc160_0220"
    INDEX 01 00:51:10
  TRACK 35 AUDIO
    TITLE "21:cjc160_0221"
    INDEX 01 00:53:36
  TRACK 36 AUDIO
    TITLE "0:"
    INDEX 01 00:54:53
  TRACK 37 AUDIO
    TITLE "20:cjc160_0222"
    INDEX 01 00:55:68
  TRACK 38 AUDIO
    TITLE "0:"
    INDEX 01 00:58:61
  TRACK 39 AUDIO
    TITLE "21:cjc160_0223"
    INDEX 01 00:59:35
  TRACK 40 AUDIO
    TITLE "21:cjc160_0224"
    INDEX 01 01:02:19
  TRACK 41 AUDIO
    TITLE "0:"
    INDEX 01 01:03:32
  TRACK 42 AUDIO
    TITLE "20:cjc160_0225"
    INDEX 01 01:04:44
  TRACK 43 AUDIO
    TITLE "0:"
    INDEX 01 01:05:63
  TRACK 44 AUDIO
    TITLE "21:cjc160_0226"
    INDEX 01 01:06:37
  TRACK 45 AUDIO
    TITLE "21:cjc160_0227"
    INDEX 01 01:08:30
  TRACK 46 AUDIO
    TITLE "0:"
    INDEX 01 01:10:01
  TRACK 47 AUDIO
    TITLE "20:cjc160_0228"
    INDEX 01 01:11:16
  TRACK 48 AUDIO
    TITLE "0:"
    INDEX 01 01:12:69
  TRACK 49 AUDIO
    TITLE "21:cjc160_0229"
    INDEX 01 01:13:43
  TRACK 50 AUDIO
    TITLE "21:cjc160_0230"
    INDEX 01 01:15:16
  TRACK 51 AUDIO
    TITLE "0:"
    INDEX 01 01:17:23
  TRACK 52 AUDIO
    TITLE "20:cjc160_0231"
    INDEX 01 01:18:36
  TRACK 53 AUDIO
    TITLE "0:"
    INDEX 01 01:20:37
  TRACK 54 AUDIO
    TITLE "21:cjc160_0232"
    INDEX 01 01:21:11
  TRACK 55 AUDIO
    TITLE "21:cjc160_0233"
    INDEX 01 01:24:21
  TRACK 56 AUDIO
    TITLE "0:"
    INDEX 01 01:25:34
  TRACK 57 AUDIO
    TITLE "20:cjc160_0234"
    INDEX 01 01:26:47
  TRACK 58 AUDIO
    TITLE "0:"
    INDEX 01 01:28:15
  TRACK 59 AUDIO
    TITLE "21:cjc160_0235"
    INDEX 01 01:28:66
  TRACK 60 AUDIO
    TITLE "21:cjc160_0236"
    INDEX 01 01:32:52
  TRACK 61 AUDIO
    TITLE "0:"
    INDEX 01 01:34:25
  TRACK 62 AUDIO
    TITLE "20:cjc160_0237"
    INDEX 01 01:35:38
  TRACK 63 AUDIO
    TITLE "0:"
    INDEX 01 01:36:53
  TRACK 64 AUDIO
    TITLE "21:cjc160_0238"
    INDEX 01 01:37:27
  TRACK 65 AUDIO
    TITLE "21:cjc160_0239"
    INDEX 01 01:40:55
  TRACK 66 AUDIO
    TITLE "0:"
    INDEX 01 01:42:56
  TRACK 67 AUDIO
    TITLE "20:cjc160_0240"
    INDEX 01 01:43:69
  TRACK 68 AUDIO
    TITLE "0:"
    INDEX 01 01:45:05
  TRACK 69 AUDIO
    TITLE "21:cjc160_0241"
    INDEX 01 01:45:56
  TRACK 70 AUDIO
    TITLE "21:cjc160_0242"
    INDEX 01 01:49:07
  TRACK 71 AUDIO
    TITLE "0:"
    INDEX 01 01:51:35
  TRACK 72 AUDIO
    TITLE "20:cjc160_0243"
    INDEX 01 01:52:50
  TRACK 73 AUDIO
    TITLE "0:"
    INDEX 01 01:54:04
  TRACK 74 AUDIO
    TITLE "21:cjc160_0244"
    INDEX 01 01:54:53
  TRACK 75 AUDIO
    TITLE "21:cjc160_0245"
    INDEX 01 01:57:09
  TRACK 76 AUDIO
    TITLE "0:"
    INDEX 01 01:59:21
  TRACK 77 AUDIO
    TITLE "20:cjc160_0246"
    INDEX 01 02:00:32
  TRACK 78 AUDIO
    TITLE "0:"
    INDEX 01 02:02:08
  TRACK 79 AUDIO
    TITLE "21:cjc160_0247"
    INDEX 01 02:02:57
  TRACK 80 AUDIO
    TITLE "21:cjc160_0248"
    INDEX 01 02:05:06
  TRACK 81 AUDIO
    TITLE "0:"
    INDEX 01 02:07:34
  TRACK 82 AUDIO
    TITLE "20:cjc160_0249"
    INDEX 01 02:08:46
  TRACK 83 AUDIO
    TITLE "0:"
    INDEX 01 02:11:73
  TRACK 84 AUDIO
    TITLE "21:cjc160_0250"
    INDEX 01 02:12:45
  TRACK 85 AUDIO
    TITLE "21:cjc160_0251"
    INDEX 01 02:15:14
  TRACK 86 AUDIO
    TITLE "0:"
    INDEX 01 02:17:66
  TRACK 87 AUDIO
    TITLE "20:cjc160_0252"
    INDEX 01 02:19:12
  TRACK 88 AUDIO
    TITLE "0:"
    INDEX 01 02:20:31
  TRACK 89 AUDIO
    TITLE "21:cjc160_0253"
    INDEX 01 02:21:07
  TRACK 90 AUDIO
    TITLE "21:cjc160_0254"
    INDEX 01 02:23:06
  TRACK 91 AUDIO
    TITLE "0:"
    INDEX 01 02:26:65
  TRACK 92 AUDIO
    TITLE "20:cjc160_0255"
    INDEX 01 02:28:03
  TRACK 93 AUDIO
    TITLE "0:"
    INDEX 01 02:29:57
  TRACK 94 AUDIO
    TITLE "21:cjc160_0256"
    INDEX 01 02:30:31
  TRACK 95 AUDIO
    TITLE "21:cjc160_0257"
    INDEX 01 02:33:08
  TRACK 96 AUDIO
    TITLE "0:"
    INDEX 01 02:35:44
  TRACK 97 AUDIO
    TITLE "20:cjc160_0258"
    INDEX 01 02:36:56
  TRACK 98 AUDIO
    TITLE "0:"
    INDEX 01 02:38:27
  TRACK 99 AUDIO
    TITLE "21:cjc160_0259"
    INDEX 01 02:39:09
  TRACK 100 AUDIO
    TITLE "21:cjc160_0260"
    INDEX 01 02:43:67
  TRACK 101 AUDIO
    TITLE "0:"
    INDEX 01 02:45:33
  TRACK 102 AUDIO
    TITLE "20:cjc160_0261"
    INDEX 01 02:46:42
  TRACK 103 AUDIO
    TITLE "0:"
    INDEX 01 02:48:53
  TRACK 104 AUDIO
    TITLE "21:cjc160_0262"
    INDEX 01 02:49:27
  TRACK 105 AUDIO
    TITLE "21:cjc160_0263"
    INDEX 01 02:53:31
  TRACK 106 AUDIO
    TITLE "0:"
    INDEX 01 02:55:35
  TRACK 107 AUDIO
    TITLE "20:cjc160_0264"
    INDEX 01 02:56:43
  TRACK 108 AUDIO
    TITLE "0:"
    INDEX 01 02:57:73
  TRACK 109 AUDIO
    TITLE "21:cjc160_0265"
    INDEX 01 02:58:49
  TRACK 110 AUDIO
    TITLE "21:cjc160_0266"
    INDEX 01 03:00:60
  TRACK 111 AUDIO
    TITLE "0:"
    INDEX 01 03:02:71
  TRACK 112 AUDIO
    TITLE "20:cjc160_0267"
    INDEX 01 03:04:11
  TRACK 113 AUDIO
    TITLE "0:"
    INDEX 01 03:05:63
  TRACK 114 AUDIO
    TITLE "21:cjc160_0268"
    INDEX 01 03:06:37
  TRACK 115 AUDIO
    TITLE "21:cjc160_0269"
    INDEX 01 03:08:42
  TRACK 116 AUDIO
    TITLE "0:"
    INDEX 01 03:10:37
  TRACK 117 AUDIO
    TITLE "20:cjc160_0270"
    INDEX 01 03:11:58
  TRACK 118 AUDIO
    TITLE "0:"
    INDEX 01 03:13:31
  TRACK 119 AUDIO
    TITLE "21:cjc160_0271"
    INDEX 01 03:14:07
  TRACK 120 AUDIO
    TITLE "21:cjc160_0272"
    INDEX 01 03:17:55
  TRACK 121 AUDIO
    TITLE "0:"
    INDEX 01 03:19:32
  TRACK 122 AUDIO
    TITLE "20:cjc160_0273"
    INDEX 01 03:20:43
  TRACK 123 AUDIO
    TITLE "0:"
    INDEX 01 03:21:64
  TRACK 124 AUDIO
    TITLE "21:cjc160_0274"
    INDEX 01 03:22:40
  TRACK 125 AUDIO
    TITLE "21:cjc160_0275"
    INDEX 01 03:26:34
  TRACK 126 AUDIO
    TITLE "0:"
    INDEX 01 03:27:45
  TRACK 127 AUDIO
    TITLE "20:cjc160_0276"
    INDEX 01 03:28:58
  TRACK 128 AUDIO
    TITLE "0:"
    INDEX 01 03:29:75
  TRACK 129 AUDIO
    TITLE "21:cjc160_0277"
    INDEX 01 03:30:49
  TRACK 130 AUDIO
    TITLE "21:cjc160_0278"
    INDEX 01 03:33:46
  TRACK 131 AUDIO
    TITLE "0:"
    INDEX 01 03:36:60
  TRACK 132 AUDIO
    TITLE "20:cjc160_0279"
    INDEX 01 03:37:71
  TRACK 133 AUDIO
    TITLE "0:"
    INDEX 01 03:39:29
  TRACK 134 AUDIO
    TITLE "21:cjc160_0280"
    INDEX 01 03:40:05
  TRACK 135 AUDIO
    TITLE "21:cjc160_0281"
    INDEX 01 03:42:56
  TRACK 136 AUDIO
    TITLE "0:"
    INDEX 01 03:44:14
  TRACK 137 AUDIO
    TITLE "20:cjc160_0282"
    INDEX 01 03:45:25
  TRACK 138 AUDIO
    TITLE "0:"
    INDEX 01 03:46:39
  TRACK 139 AUDIO
    TITLE "21:cjc160_0283"
    INDEX 01 03:47:09
  TRACK 140 AUDIO
    TITLE "21:cjc160_0284"
    INDEX 01 03:50:05
  TRACK 141 AUDIO
    TITLE "0:"
    INDEX 01 03:51:52
  TRACK 142 AUDIO
    TITLE "20:cjc160_0285"
    INDEX 01 03:52:73
  TRACK 143 AUDIO
    TITLE "0:"
    INDEX 01 03:55:40
  TRACK 144 AUDIO
    TITLE "21:cjc160_0286"
    INDEX 01 03:56:12
  TRACK 145 AUDIO
    TITLE "21:cjc160_0287"
    INDEX 01 03:59:24
  TRACK 146 AUDIO
    TITLE "0:"
    INDEX 01 04:01:38
  TRACK 147 AUDIO
    TITLE "20:cjc160_0288"
    INDEX 01 04:02:49
  TRACK 148 AUDIO
    TITLE "0:"
    INDEX 01 04:03:66
  TRACK 149 AUDIO
    TITLE "21:cjc160_0289"
    INDEX 01 04:04:40
  TRACK 150 AUDIO
    TITLE "21:cjc160_0290"
    INDEX 01 04:08:40
  TRACK 151 AUDIO
    TITLE "0:"
    INDEX 01 04:10:49
  TRACK 152 AUDIO
    TITLE "20:cjc160_0291"
    INDEX 01 04:11:60
  TRACK 153 AUDIO
    TITLE "0:"
    INDEX 01 04:13:53
  TRACK 154 AUDIO
    TITLE "21:cjc160_0292"
    INDEX 01 04:14:31
  TRACK 155 AUDIO
    TITLE "21:cjc160_0293"
    INDEX 01 04:16:24
  TRACK 156 AUDIO
    TITLE "0:"
    INDEX 01 04:18:05
  TRACK 157 AUDIO
    TITLE "20:cjc160_0294"
    INDEX 01 04:19:18
  TRACK 158 AUDIO
    TITLE "0:"
    INDEX 01 04:20:36
  TRACK 159 AUDIO
    TITLE "21:cjc160_0295"
    INDEX 01 04:21:11
  TRACK 160 AUDIO
    TITLE "21:cjc160_0296"
    INDEX 01 04:23:36
  TRACK 161 AUDIO
    TITLE "0:"
    INDEX 01 04:26:30
  TRACK 162 AUDIO
    TITLE "20:cjc160_0297"
    INDEX 01 04:27:43
  TRACK 163 AUDIO
    TITLE "0:"
    INDEX 01 04:29:09
  TRACK 164 AUDIO
    TITLE "21:cjc160_0298"
    INDEX 01 04:29:60
  TRACK 165 AUDIO
    TITLE "21:cjc160_0299"
    INDEX 01 04:33:60
  TRACK 166 AUDIO
    TITLE "0:"
    INDEX 01 04:37:71
  TRACK 167 AUDIO
    TITLE "20:cjc160_0300"
    INDEX 01 04:39:07
  TRACK 168 AUDIO
    TITLE "0:"
    INDEX 01 04:40:32
  TRACK 169 AUDIO
    TITLE "21:cjc160_0301"
    INDEX 01 04:41:06
  TRACK 170 AUDIO
    TITLE "21:cjc160_0302"
    INDEX 01 04:44:24
  TRACK 171 AUDIO
    TITLE "0:"
    INDEX 01 04:48:48
  TRACK 172 AUDIO
    TITLE "20:cjc160_0303"
    INDEX 01 04:49:57
  TRACK 173 AUDIO
    TITLE "0:"
    INDEX 01 04:51:15
  TRACK 174 AUDIO
    TITLE "21:cjc160_0304"
    INDEX 01 04:51:67
  TRACK 175 AUDIO
    TITLE "21:cjc160_0305"
    INDEX 01 04:55:01
  TRACK 176 AUDIO
    TITLE "0:"
    INDEX 01 05:00:35
  TRACK 177 AUDIO
    TITLE "20:cjc160_0306"
    INDEX 01 05:01:48
  TRACK 178 AUDIO
    TITLE "0:"
    INDEX 01 05:02:73
  TRACK 179 AUDIO
    TITLE "21:cjc160_0307"
    INDEX 01 05:03:47
  TRACK 180 AUDIO
    TITLE "21:cjc160_0308"
    INDEX 01 05:06:49
  TRACK 181 AUDIO
    TITLE "0:"
    INDEX 01 05:09:61
  TRACK 182 AUDIO
    TITLE "20:cjc160_0309"
    INDEX 01 05:10:75
  TRACK 183 AUDIO
    TITLE "0:"
    INDEX 01 05:12:34
  TRACK 184 AUDIO
    TITLE "21:cjc160_0310"
    INDEX 01 05:13:10
  TRACK 185 AUDIO
    TITLE "21:cjc160_0311"
    INDEX 01 05:16:52
  TRACK 186 AUDIO
    TITLE "0:"
    INDEX 01 05:18:66
  TRACK 187 AUDIO
    TITLE "20:cjc160_0312"
    INDEX 01 05:20:04
  TRACK 188 AUDIO
    TITLE "0:"
    INDEX 01 05:21:14
  TRACK 189 AUDIO
    TITLE "21:cjc160_0313"
    INDEX 01 05:21:65
  TRACK 190 AUDIO
    TITLE "21:cjc160_0314"
    INDEX 01 05:25:64
  TRACK 191 AUDIO
    TITLE "0:"
    INDEX 01 05:28:71
  TRACK 192 AUDIO
    TITLE "20:cjc160_0315"
    INDEX 01 05:30:09
  TRACK 193 AUDIO
    TITLE "0:"
    INDEX 01 05:31:32
  TRACK 194 AUDIO
    TITLE "21:cjc160_0316"
    INDEX 01 05:32:08
  TRACK 195 AUDIO
    TITLE "21:cjc160_0317"
    INDEX 01 05:37:05
  TRACK 196 AUDIO
    TITLE "0:"
    INDEX 01 05:42:47
  TRACK 197 AUDIO
    TITLE "20:cjc160_0318"
    INDEX 01 05:43:62
  TRACK 198 AUDIO
    TITLE "0:"
    INDEX 01 05:45:14
  TRACK 199 AUDIO
    TITLE "21:cjc160_0319"
    INDEX 01 05:45:63
  TRACK 200 AUDIO
    TITLE "21:cjc160_0320"
    INDEX 01 05:47:44
  TRACK 201 AUDIO
    TITLE "0:"
    INDEX 01 05:48:69
  TRACK 202 AUDIO
    TITLE "20:cjc160_0321"
    INDEX 01 05:50:07
  TRACK 203 AUDIO
    TITLE "0:"
    INDEX 01 05:53:31
  TRACK 204 AUDIO
    TITLE "21:cjc160_0322"
    INDEX 01 05:54:07
  TRACK 205 AUDIO
    TITLE "21:cjc160_0323"
    INDEX 01 05:55:63
  TRACK 206 AUDIO
    TITLE "0:"
    INDEX 01 06:01:11
  TRACK 207 AUDIO
    TITLE "20:cjc160_0324"
    INDEX 01 06:02:26
  TRACK 208 AUDIO
    TITLE "0:"
    INDEX 01 06:04:72
  TRACK 209 AUDIO
    TITLE "21:cjc160_0325"
    INDEX 01 06:05:50
  TRACK 210 AUDIO
    TITLE "21:cjc160_0326"
    INDEX 01 06:10:49
  TRACK 211 AUDIO
    TITLE "0:"
    INDEX 01 06:12:46
  TRACK 212 AUDIO
    TITLE "20:cjc160_0327"
    INDEX 01 06:13:73
  TRACK 213 AUDIO
    TITLE "0:"
    INDEX 01 06:15:41
  TRACK 214 AUDIO
    TITLE "21:cjc160_0328"
    INDEX 01 06:16:15
  TRACK 215 AUDIO
    TITLE "21:cjc160_0329"
    INDEX 01 06:19:70
  TRACK 216 AUDIO
    TITLE "0:"
    INDEX 01 06:21:24
  TRACK 217 AUDIO
    TITLE "20:cjc160_0330"
    INDEX 01 06:22:41
  TRACK 218 AUDIO
    TITLE "0:"
    INDEX 01 06:24:04
  TRACK 219 AUDIO
    TITLE "21:cjc160_0331"
    INDEX 01 06:24:71
  TRACK 220 AUDIO
    TITLE "21:cjc160_0332"
    INDEX 01 06:29:06
  TRACK 221 AUDIO
    TITLE "0:"
    INDEX 01 06:33:33
  TRACK 222 AUDIO
    TITLE "20:cjc160_0333"
    INDEX 01 06:34:44
  TRACK 223 AUDIO
    TITLE "0:"
    INDEX 01 06:36:02
  TRACK 224 AUDIO
    TITLE "21:cjc160_0334"
    INDEX 01 06:36:51
  TRACK 225 AUDIO
    TITLE "21:cjc160_0335"
    INDEX 01 06:39:33
  TRACK 226 AUDIO
    TITLE "0:"
    INDEX 01 06:43:04
  TRACK 227 AUDIO
    TITLE "20:cjc160_0336"
    INDEX 01 06:44:15
  TRACK 228 AUDIO
    TITLE "0:"
    INDEX 01 06:45:69
  TRACK 229 AUDIO
    TITLE "21:cjc160_0337"
    INDEX 01 06:46:45
  TRACK 230 AUDIO
    TITLE "21:cjc160_0338"
    INDEX 01 06:49:75
  TRACK 231 AUDIO
    TITLE "0:"
    INDEX 01 06:53:04
  TRACK 232 AUDIO
    TITLE "20:cjc160_0339"
    INDEX 01 06:54:15
  TRACK 233 AUDIO
    TITLE "0:"
    INDEX 01 06:55:40
  TRACK 234 AUDIO
    TITLE "21:cjc160_0340"
    INDEX 01 06:56:14
  TRACK 235 AUDIO
    TITLE "21:cjc160_0341"
    INDEX 01 06:58:46
  TRACK 236 AUDIO
    TITLE "0:"
    INDEX 01 07:04:55
  TRACK 237 AUDIO
    TITLE "20:cjc160_0342"
    INDEX 01 07:05:68
  TRACK 238 AUDIO
    TITLE "0:"
    INDEX 01 07:07:22
  TRACK 239 AUDIO
    TITLE "21:cjc160_0343"
    INDEX 01 07:07:73
  TRACK 240 AUDIO
    TITLE "21:cjc160_0344"
    INDEX 01 07:10:24
  TRACK 241 AUDIO
    TITLE "0:"
    INDEX 01 07:12:25
  TRACK 242 AUDIO
    TITLE "20:cjc160_0345"
    INDEX 01 07:13:38
  TRACK 243 AUDIO
    TITLE "0:"
    INDEX 01 07:14:67
  TRACK 244 AUDIO
    TITLE "21:cjc160_0346"
    INDEX 01 07:15:43
  TRACK 245 AUDIO
    TITLE "21:cjc160_0347"
    INDEX 01 07:17:61
  TRACK 246 AUDIO
    TITLE "0:"
    INDEX 01 07:19:70
  TRACK 247 AUDIO
    TITLE "20:cjc160_0348"
    INDEX 01 07:21:06
  TRACK 248 AUDIO
    TITLE "0:"
    INDEX 01 07:22:59
  TRACK 249 AUDIO
    TITLE "21:cjc160_0349"
    INDEX 01 07:23:33
  TRACK 250 AUDIO
    TITLE "21:cjc160_0350"
    INDEX 01 07:26:55
  TRACK 251 AUDIO
    TITLE "0:"
    INDEX 01 07:30:13
  TRACK 252 AUDIO
    TITLE "20:cjc160_0351"
    INDEX 01 07:31:22
  TRACK 253 AUDIO
    TITLE "0:"
    INDEX 01 07:32:61
  TRACK 254 AUDIO
    TITLE "21:cjc160_0352"
    INDEX 01 07:33:37
  TRACK 255 AUDIO
    TITLE "21:cjc160_0353"
    INDEX 01 07:36:31
  TRACK 256 AUDIO
    TITLE "0:"
    INDEX 01 07:40:04
  TRACK 257 AUDIO
    TITLE "20:cjc160_0354"
    INDEX 01 07:41:17
  TRACK 258 AUDIO
    TITLE "0:"
    INDEX 01 07:42:30
  TRACK 259 AUDIO
    TITLE "21:cjc160_0355"
    INDEX 01 07:43:06
  TRACK 260 AUDIO
    TITLE "21:cjc160_0356"
    INDEX 01 07:44:39
  TRACK 261 AUDIO
    TITLE "0:"
    INDEX 01 07:46:45
  TRACK 262 AUDIO
    TITLE "20:cjc160_0357"
    INDEX 01 07:47:59
  TRACK 263 AUDIO
    TITLE "0:"
    INDEX 01 07:49:18
  TRACK 264 AUDIO
    TITLE "21:cjc160_0358"
    INDEX 01 07:49:71
  TRACK 265 AUDIO
    TITLE "21:cjc160_0359"
    INDEX 01 07:51:72
  TRACK 266 AUDIO
    TITLE "0:"
    INDEX 01 07:53:28
  TRACK 267 AUDIO
    TITLE "20:cjc160_0360"
    INDEX 01 07:54:41
  TRACK 268 AUDIO
    TITLE "0:"
    INDEX 01 07:56:50
  TRACK 269 AUDIO
    TITLE "21:cjc160_0361"
    INDEX 01 07:57:26
  TRACK 270 AUDIO
    TITLE "21:cjc160_0362"
    INDEX 01 07:59:34
  TRACK 271 AUDIO
    TITLE "0:"
    INDEX 01 08:06:23
  TRACK 272 AUDIO
    TITLE "20:cjc160_0363"
    INDEX 01 08:07:30
  TRACK 273 AUDIO
    TITLE "0:"
    INDEX 01 08:08:47
  TRACK 274 AUDIO
    TITLE "21:cjc160_0364"
    INDEX 01 08:09:27
  TRACK 275 AUDIO
    TITLE "21:cjc160_0365"
    INDEX 01 08:13:38
  TRACK 276 AUDIO
    TITLE "0:"
    INDEX 01 08:18:20
  TRACK 277 AUDIO
    TITLE "20:cjc160_0366"
    INDEX 01 08:19:33
  TRACK 278 AUDIO
    TITLE "0:"
    INDEX 01 08:20:74
  TRACK 279 AUDIO
    TITLE "21:cjc160_0367"
    INDEX 01 08:21:50
  TRACK 280 AUDIO
    TITLE "21:cjc160_0368"
    INDEX 01 08:25:69
  TRACK 281 AUDIO
    TITLE "0:"
    INDEX 01 08:31:11
  TRACK 282 AUDIO
    TITLE "20:cjc160_0369"
    INDEX 01 08:32:24
  TRACK 283 AUDIO
    TITLE "0:"
    INDEX 01 08:33:51
  TRACK 284 AUDIO
    TITLE "21:cjc160_0370"
    INDEX 01 08:34:25
  TRACK 285 AUDIO
    TITLE "21:cjc160_0371"
    INDEX 01 08:37:53
  TRACK 286 AUDIO
    TITLE "0:"
    INDEX 01 08:42:20
  TRACK 287 AUDIO
    TITLE "20:cjc160_0372"
    INDEX 01 08:43:32
  TRACK 288 AUDIO
    TITLE "0:"
    INDEX 01 08:45:03
  TRACK 289 AUDIO
    TITLE "21:cjc160_0373"
    INDEX 01 08:45:54
  TRACK 290 AUDIO
    TITLE "21:cjc160_0374"
    INDEX 01 08:47:71
  TRACK 291 AUDIO
    TITLE "0:"
    INDEX 01 08:52:11
  TRACK 292 AUDIO
    TITLE "20:cjc160_0375"
    INDEX 01 08:53:30
  TRACK 293 AUDIO
    TITLE "0:"
    INDEX 01 08:54:61
  TRACK 294 AUDIO
    TITLE "21:cjc160_0376"
    INDEX 01 08:55:39
  TRACK 295 AUDIO
    TITLE "21:cjc160_0377"
    INDEX 01 08:57:59
  TRACK 296 AUDIO
    TITLE "0:"
    INDEX 01 08:59:17
  TRACK 297 AUDIO
    TITLE "20:cjc160_0378"
    INDEX 01 09:00:26
  TRACK 298 AUDIO
    TITLE "0:"
    INDEX 01 09:01:34
  TRACK 299 AUDIO
    TITLE "21:cjc160_0379"
    INDEX 01 09:02:02
  TRACK 300 AUDIO
    TITLE "21:cjc160_0380"
    INDEX 01 09:04:16
  TRACK 301 AUDIO
    TITLE "0:"
    INDEX 01 09:05:45
